<svg width="149" height="228" viewBox="0 0 149 228" fill="none" xmlns="http://www.w3.org/2000/svg">
<path fill-rule="evenodd" clip-rule="evenodd" d="M51.7142 54.5L50.6909 60L62.838 60L63.8583 54.5L56.3827 54.5L51.7142 54.5Z" fill="white"/>
<path fill-rule="evenodd" clip-rule="evenodd" d="M70.6954 22.2502L63.0748 22.2503L62.0859 27.7502L69.5958 27.7502L70.6954 22.2502Z" fill="white"/>
<path fill-rule="evenodd" clip-rule="evenodd" d="M46.2936 32.8684L47.1367 27.8702L57.0414 27.8702L58.0548 22.2135L50.7101 22.2135L54.7873 -2.53227e-06L16 37.6514L41.1854 76L44.9568 54.4105L37.2786 54.4105L36.9029 54.4249L36.9058 54.4105L36.8796 54.4105L37.8916 48.7524L45.9587 48.7524L45.9572 48.7667L45.9587 48.7667L45.9616 48.7481L60.3891 48.7481L61.2875 43.6523L46.86 43.6523L47.9551 38.0774L74.1015 38.0774L75 32.8684L46.2936 32.8684ZM41.7519 43.6164L34.3925 43.6164L35.4045 37.9584L42.7653 37.9584L41.7519 43.6164Z" fill="white"/>
<path fill-rule="evenodd" clip-rule="evenodd" d="M51.7142 131.217L50.6909 136.79L62.838 136.79L63.8583 131.217L56.3827 131.217L51.7142 131.217Z" fill="white"/>
<path fill-rule="evenodd" clip-rule="evenodd" d="M70.6954 98.5431L63.0748 98.5431L62.0859 104.115L69.5958 104.115L70.6954 98.5431Z" fill="white"/>
<path fill-rule="evenodd" clip-rule="evenodd" d="M46.2936 109.301L47.1367 104.237L57.0414 104.237L58.0548 98.5058L50.7101 98.5058L54.7873 76L16 114.147L41.1854 153L44.9568 131.126L37.2786 131.126L36.9029 131.141L36.9058 131.126L36.8796 131.126L37.8916 125.394L45.9587 125.394L45.9572 125.408L45.9587 125.408L45.9616 125.389L60.3891 125.389L61.2875 120.227L46.86 120.227L47.9551 114.578L74.1015 114.578L75 109.301L46.2936 109.301ZM41.7519 120.19L34.3925 120.19L35.4045 114.458L42.7653 114.458L41.7519 120.19Z" fill="white"/>
<path fill-rule="evenodd" clip-rule="evenodd" d="M109.714 54.5L108.691 60L120.838 60L121.858 54.5L114.383 54.5L109.714 54.5Z" fill="white"/>
<path fill-rule="evenodd" clip-rule="evenodd" d="M128.695 22.2502L121.075 22.2503L120.086 27.7502L127.596 27.7502L128.695 22.2502Z" fill="white"/>
<path fill-rule="evenodd" clip-rule="evenodd" d="M104.294 32.8684L105.137 27.8702L115.041 27.8702L116.055 22.2135L108.71 22.2135L112.787 -2.53227e-06L74 37.6514L99.1854 76L102.957 54.4105L95.2786 54.4105L94.9029 54.4249L94.9058 54.4105L94.8796 54.4105L95.8916 48.7524L103.959 48.7524L103.957 48.7667L103.959 48.7667L103.962 48.7481L118.389 48.7481L119.287 43.6523L104.86 43.6523L105.955 38.0774L132.102 38.0774L133 32.8684L104.294 32.8684ZM99.7519 43.6164L92.3925 43.6164L93.4045 37.9584L100.765 37.9584L99.7519 43.6164Z" fill="white"/>
<path fill-rule="evenodd" clip-rule="evenodd" d="M109.714 131.217L108.691 136.79L120.838 136.79L121.858 131.217L114.383 131.217L109.714 131.217Z" fill="white"/>
<path fill-rule="evenodd" clip-rule="evenodd" d="M128.695 98.5431L121.075 98.5431L120.086 104.115L127.596 104.115L128.695 98.5431Z" fill="white"/>
<path fill-rule="evenodd" clip-rule="evenodd" d="M104.294 109.301L105.137 104.237L115.041 104.237L116.055 98.5058L108.71 98.5058L112.787 76L74 114.147L99.1854 153L102.957 131.126L95.2786 131.126L94.9029 131.141L94.9058 131.126L94.8796 131.126L95.8916 125.394L103.959 125.394L103.957 125.408L103.959 125.408L103.962 125.389L118.389 125.389L119.287 120.227L104.86 120.227L105.955 114.578L132.102 114.578L133 109.301L104.294 109.301ZM99.7519 120.19L92.3925 120.19L93.4045 114.458L100.765 114.458L99.7519 120.19Z" fill="white"/>
<path fill-rule="evenodd" clip-rule="evenodd" d="M51.7142 206.5L50.6909 212L62.838 212L63.8583 206.5L56.3827 206.5L51.7142 206.5Z" fill="white"/>
<path fill-rule="evenodd" clip-rule="evenodd" d="M70.6954 174.25L63.0748 174.25L62.0859 179.75L69.5958 179.75L70.6954 174.25Z" fill="white"/>
<path fill-rule="evenodd" clip-rule="evenodd" d="M46.2936 184.868L47.1367 179.87L57.0414 179.87L58.0548 174.214L50.7101 174.214L54.7873 152L16 189.651L41.1854 228L44.9568 206.411L37.2786 206.411L36.9029 206.425L36.9058 206.411L36.8796 206.411L37.8916 200.752L45.9587 200.752L45.9572 200.767L45.9587 200.767L45.9616 200.748L60.3891 200.748L61.2875 195.652L46.86 195.652L47.9551 190.077L74.1015 190.077L75 184.868L46.2936 184.868ZM41.7519 195.616L34.3925 195.616L35.4045 189.958L42.7653 189.958L41.7519 195.616Z" fill="white"/>
<path fill-rule="evenodd" clip-rule="evenodd" d="M109.714 206.5L108.691 212L120.838 212L121.858 206.5L114.383 206.5L109.714 206.5Z" fill="white"/>
<path fill-rule="evenodd" clip-rule="evenodd" d="M128.695 174.25L121.075 174.25L120.086 179.75L127.596 179.75L128.695 174.25Z" fill="white"/>
<path fill-rule="evenodd" clip-rule="evenodd" d="M104.294 184.868L105.137 179.87L115.041 179.87L116.055 174.214L108.71 174.214L112.787 152L74 189.651L99.1854 228L102.957 206.411L95.2786 206.411L94.9029 206.425L94.9058 206.411L94.8796 206.411L95.8916 200.752L103.959 200.752L103.957 200.767L103.959 200.767L103.962 200.748L118.389 200.748L119.287 195.652L104.86 195.652L105.955 190.077L132.102 190.077L133 184.868L104.294 184.868ZM99.7519 195.616L92.3925 195.616L93.4045 189.958L100.765 189.958L99.7519 195.616Z" fill="white"/>
</svg>
