<svg width="74" height="96" viewBox="0 0 74 96" fill="none" xmlns="http://www.w3.org/2000/svg">
<path fill-rule="evenodd" clip-rule="evenodd" d="M44.2172 68.3443L42.9503 75.2415L57.9894 75.2415L59.2526 68.3443L49.9972 68.3443L44.2172 68.3443Z" fill="white"/>
<path fill-rule="evenodd" clip-rule="evenodd" d="M67.7174 27.9024L58.2825 27.9024L57.0582 34.7996L66.356 34.7996L67.7174 27.9024Z" fill="white"/>
<path fill-rule="evenodd" clip-rule="evenodd" d="M37.5059 41.2176L38.5498 34.9498L50.8126 34.9498L52.0673 27.8562L42.9739 27.8562L48.0218 -0.000106898L-2.10208e-06 47.2156L31.1816 95.3057L35.8509 68.2319L26.3447 68.2319L25.8795 68.25L25.8831 68.2319L25.8507 68.2319L27.1037 61.1365L37.0913 61.1365L37.0895 61.1545L37.0913 61.1545L37.0949 61.1311L54.9573 61.1311L56.0696 54.7409L38.2072 54.7409L39.563 47.7499L71.9345 47.7499L73.0469 41.2176L37.5059 41.2176ZM31.8829 54.6959L22.7714 54.6959L24.0244 47.6006L33.1377 47.6006L31.8829 54.6959Z" fill="white"/>
</svg>
