<svg width="232" height="69" viewBox="0 0 232 69" fill="none" xmlns="http://www.w3.org/2000/svg">
<path fill-rule="evenodd" clip-rule="evenodd" d="M29.1491 61.8243C28.9502 61.5384 28.7336 61.1959 28.4971 60.7973C28.2613 60.398 28.0226 59.9972 27.7832 59.5927C27.543 59.189 27.319 58.8059 27.1142 58.4427C26.9079 58.0802 26.7422 57.7811 26.6177 57.5453C26.4762 57.2904 26.3406 57.0267 26.2117 56.7556C26.0828 56.4852 26.0386 56.2421 26.0761 56.0269C26.1174 55.7919 26.2279 55.6055 26.4077 55.4677C26.5874 55.33 26.8077 55.2607 27.0678 55.2607C27.2748 55.2607 27.4391 55.2858 27.5599 55.3373C27.6808 55.3874 27.7655 55.4243 27.8134 55.4442C27.9276 55.6799 28.0904 55.996 28.2996 56.3953C28.5096 56.7939 28.738 57.2204 28.9855 57.6758C29.2323 58.1311 29.4813 58.5834 29.7348 59.0328C29.9882 59.483 30.2151 59.872 30.417 60.1991C30.7242 59.872 31.0425 59.5213 31.3733 59.1485C31.7041 58.775 32.029 58.4014 32.3495 58.0287C32.6692 57.6551 32.9779 57.2904 33.2741 56.9316C33.571 56.5736 33.8384 56.2524 34.0756 55.9658C34.2208 55.7919 34.3939 55.6313 34.5965 55.4825C34.7991 55.3351 35.0614 55.2607 35.3833 55.2607C35.6633 55.2607 35.888 55.3138 36.056 55.4213C36.224 55.5289 36.3249 55.6026 36.3595 55.6438C36.2335 55.828 36.0501 56.0711 35.8107 56.3725C35.5705 56.6745 35.2964 57.0061 34.9885 57.3693C34.6805 57.7325 34.3504 58.1156 33.999 58.5193C33.6476 58.923 33.294 59.3223 32.9388 59.7158C32.5837 60.1092 32.2397 60.4879 31.906 60.8504C31.5715 61.2136 31.2709 61.5384 31.002 61.8243L30.305 65.7806H28.4514L29.1491 61.8243Z" fill="#808285"/>
<path fill-rule="evenodd" clip-rule="evenodd" d="M39.128 57.8657C39.73 57.8657 40.2751 57.9674 40.7636 58.1722C41.2513 58.377 41.6558 58.6599 41.9763 59.0238C42.296 59.3871 42.5215 59.8159 42.6519 60.3117C42.783 60.8075 42.797 61.3468 42.6938 61.9303C42.5929 62.502 42.3896 63.0369 42.0838 63.5327C41.7788 64.0285 41.4023 64.458 40.9537 64.8205C40.5057 65.1837 40.0011 65.4703 39.4397 65.6796C38.879 65.8888 38.297 65.9942 37.6951 65.9942C37.0924 65.9942 36.5473 65.8888 36.061 65.6796C35.5733 65.4703 35.1688 65.1837 34.8498 64.8205C34.5293 64.458 34.3039 64.0285 34.1728 63.5327C34.0431 63.0369 34.0276 62.502 34.1286 61.9303C34.2317 61.3468 34.4358 60.8075 34.7408 60.3117C35.0465 59.8159 35.4237 59.3871 35.8717 59.0238C36.3189 58.6599 36.8243 58.377 37.3849 58.1722C37.9441 57.9674 38.5254 57.8657 39.128 57.8657ZM37.9677 64.4455C38.3206 64.4455 38.6587 64.3814 38.9829 64.2532C39.3063 64.125 39.5951 63.9468 39.8486 63.7169C40.1013 63.4863 40.3149 63.2203 40.4873 62.919C40.6597 62.6177 40.7776 62.2876 40.841 61.9303C40.9043 61.5722 40.9029 61.2363 40.8388 60.9254C40.7747 60.613 40.6553 60.3448 40.4829 60.1201C40.3098 59.8947 40.0829 59.7193 39.8051 59.5911C39.5266 59.463 39.2098 59.3996 38.8577 59.3996C38.4944 59.3996 38.1533 59.463 37.8351 59.5911C37.5161 59.7193 37.2309 59.8947 36.9782 60.1201C36.7255 60.3448 36.5126 60.613 36.338 60.9254C36.1634 61.2363 36.0455 61.5722 35.9822 61.9303C35.9188 62.2876 35.9196 62.6177 35.9866 62.919C36.0529 63.2203 36.1723 63.4863 36.3439 63.7169C36.5163 63.9468 36.7395 64.125 37.0129 64.2532C37.2862 64.3814 37.6045 64.4455 37.9677 64.4455Z" fill="#808285"/>
<path fill-rule="evenodd" clip-rule="evenodd" d="M44.4131 58.8927C44.4632 58.6068 44.5833 58.3991 44.7719 58.2716C44.9598 58.1442 45.2051 58.0808 45.5064 58.0808C45.6928 58.0808 45.86 58.1029 46.0074 58.1493C46.1555 58.195 46.2535 58.2282 46.3021 58.2488L45.5911 62.2824C45.4681 62.9779 45.541 63.5061 45.8092 63.8693C46.0774 64.2326 46.554 64.4138 47.2392 64.4138C47.9251 64.4138 48.4651 64.2326 48.8615 63.8693C49.2579 63.5061 49.5172 62.9779 49.6402 62.2824L50.2377 58.8927C50.2878 58.6068 50.4072 58.3991 50.5965 58.2716C50.7844 58.1442 51.0238 58.0808 51.3148 58.0808C51.5123 58.0808 51.6847 58.1029 51.832 58.1493C51.9801 58.195 52.0781 58.2282 52.126 58.2488L51.3473 62.6663C51.2552 63.1879 51.082 63.6542 50.8279 64.069C50.5729 64.483 50.2517 64.833 49.8635 65.1196C49.476 65.4062 49.0354 65.6228 48.5418 65.7716C48.0482 65.9197 47.5221 65.9941 46.9615 65.9941C46.4008 65.9941 45.8991 65.9197 45.4585 65.7716C45.018 65.6228 44.6562 65.4062 44.374 65.1196C44.0919 64.833 43.8952 64.483 43.781 64.069C43.6668 63.6542 43.6557 63.1879 43.7478 62.6663L44.4131 58.8927Z" fill="#808285"/>
<path fill-rule="evenodd" clip-rule="evenodd" d="M53.183 60.8259C53.3487 59.8851 53.7709 59.1565 54.4487 58.6408C55.1258 58.1243 55.984 57.8665 57.0221 57.8665C57.6763 57.8665 58.1921 57.9556 58.5715 58.1339C58.9494 58.3129 59.1063 58.5863 59.0415 58.9554C59.0113 59.1292 58.9317 59.2972 58.8043 59.4608C58.6768 59.6243 58.5788 59.7267 58.5088 59.7672C58.3468 59.6855 58.1419 59.6096 57.8959 59.5374C57.6483 59.4659 57.3588 59.4305 57.0265 59.4305C55.8117 59.4305 55.0926 60.0642 54.8694 61.3321L54.0855 65.779H52.3099L53.183 60.8259Z" fill="#808285"/>
<path fill-rule="evenodd" clip-rule="evenodd" d="M62.8213 67.0978C62.8596 67.1184 62.9436 67.1567 63.074 67.2134C63.2037 67.2687 63.3702 67.3254 63.5728 67.3821C63.7761 67.4381 64.017 67.4868 64.2948 67.5273C64.5733 67.5686 64.8783 67.5892 65.2106 67.5892C65.5635 67.5892 65.9186 67.5509 66.2751 67.4735C66.631 67.3969 66.961 67.2598 67.2668 67.0602C67.5711 66.8605 67.8414 66.5813 68.0757 66.224C68.31 65.8659 68.4765 65.4062 68.576 64.8434L68.6084 64.6592C68.3211 64.9362 67.9298 65.197 67.4348 65.4423C66.9404 65.6869 66.3753 65.81 65.7425 65.81C65.1612 65.81 64.6433 65.7157 64.1887 65.5263C63.7334 65.3377 63.3599 65.071 63.0681 64.7291C62.7749 64.3858 62.5723 63.9748 62.4603 63.4944C62.3476 63.014 62.3424 62.4821 62.4456 61.8993C62.5487 61.3166 62.7491 60.7795 63.049 60.2888C63.3473 59.7982 63.7165 59.3738 64.1526 59.0157C64.5895 58.6577 65.0883 58.377 65.6489 58.1722C66.2088 57.9674 66.8004 57.8657 67.4237 57.8657C68.0153 57.8657 68.5472 57.9527 69.021 58.1265C69.4939 58.3004 69.8859 58.5663 70.1953 58.9237C70.507 59.2817 70.7169 59.7363 70.8274 60.2888C70.9372 60.8414 70.9269 61.4905 70.7958 62.2368L70.406 64.4455C70.2638 65.253 70.0296 65.9455 69.7047 66.5231C69.379 67.1007 68.9871 67.5737 68.5281 67.9413C68.0684 68.3104 67.5512 68.5779 66.9772 68.7466C66.4019 68.916 65.7926 69 65.1487 69C64.7228 69 64.3405 68.9764 64.0008 68.9308C63.6612 68.8843 63.3628 68.8291 63.1042 68.762C62.8456 68.6957 62.6342 68.6287 62.4692 68.5631C62.3041 68.4961 62.1848 68.443 62.1089 68.4018L62.8213 67.0978ZM66.267 64.3372C66.6192 64.3372 66.9522 64.276 67.2646 64.1537C67.5777 64.0307 67.8554 63.8613 68.1022 63.6476C68.3476 63.4325 68.5553 63.1776 68.7277 62.8814C68.8987 62.5845 69.0165 62.2574 69.0791 61.8993C69.1403 61.5516 69.1381 61.2275 69.0725 60.9254C69.0055 60.6233 68.8884 60.3625 68.7196 60.143C68.5502 59.9242 68.3321 59.7518 68.0625 59.6295C67.7936 59.5064 67.4819 59.4446 67.1297 59.4446C66.7658 59.4446 66.4254 59.5094 66.1064 59.6368C65.7882 59.765 65.506 59.9419 65.2585 60.1658C65.0109 60.3913 64.8046 60.6521 64.6374 60.9482C64.4716 61.2451 64.3582 61.5619 64.2985 61.8993C64.1688 62.6353 64.283 63.2255 64.6403 63.6712C64.9984 64.1155 65.5399 64.3372 66.267 64.3372Z" fill="#808285"/>
<path fill-rule="evenodd" clip-rule="evenodd" d="M78.5559 65.2117C78.4631 65.2633 78.3209 65.3347 78.1286 65.4276C77.9356 65.5182 77.6999 65.6051 77.4206 65.6877C77.1414 65.7694 76.8231 65.8402 76.4643 65.9028C76.1056 65.9632 75.718 65.9949 75.3033 65.9949C74.722 65.9949 74.1945 65.9072 73.7215 65.7341C73.2485 65.5595 72.8529 65.3016 72.5346 64.959C72.2156 64.6164 71.9916 64.1973 71.8605 63.7014C71.7308 63.2056 71.722 62.6353 71.8354 61.9914C71.9437 61.3777 72.1485 60.8178 72.4506 60.3124C72.7527 59.8055 73.1247 59.3716 73.5682 59.0084C74.011 58.6459 74.5076 58.3637 75.0557 58.1656C75.6053 57.9652 76.1859 57.8657 76.7988 57.8657C77.3381 57.8657 77.8037 57.935 78.1949 58.0727C78.5854 58.2113 78.9037 58.3954 79.149 58.6245C79.3936 58.8551 79.5616 59.1233 79.6529 59.4305C79.7443 59.737 79.759 60.0642 79.6979 60.4112C79.6353 60.7692 79.51 61.0941 79.3236 61.3851C79.1372 61.6761 78.8551 61.9281 78.4749 62.1373C78.0955 62.3465 77.6041 62.5101 77.0029 62.628C76.4002 62.7459 75.6525 62.8048 74.7595 62.8048C74.5525 62.8048 74.358 62.8019 74.1775 62.7967C73.9963 62.7915 73.8033 62.7834 73.597 62.7739C73.5881 63.2947 73.7708 63.7169 74.1451 64.0381C74.5186 64.3608 75.1058 64.5214 75.9052 64.5214C76.1755 64.5214 76.4282 64.5015 76.664 64.461C76.899 64.4197 77.1134 64.3689 77.3057 64.307C77.498 64.2458 77.6645 64.1847 77.8059 64.1228C77.9459 64.0617 78.0505 64.016 78.1176 63.985L78.5559 65.2117ZM73.7311 61.5774C73.9676 61.5877 74.1952 61.5921 74.4125 61.5921H75.0668C75.6377 61.5921 76.1063 61.5567 76.4724 61.4853C76.8371 61.4138 77.1296 61.3217 77.3462 61.209C77.5628 61.097 77.7153 60.9696 77.803 60.8259C77.8907 60.6823 77.9474 60.5349 77.9746 60.3809C78.0432 59.9927 77.9363 59.7009 77.6542 59.5071C77.3713 59.3126 76.997 59.2162 76.5292 59.2162C76.1453 59.2162 75.7961 59.2817 75.4815 59.4151C75.1684 59.5477 74.8929 59.7238 74.6571 59.944C74.4206 60.1643 74.2232 60.4171 74.0633 60.7029C73.9042 60.9895 73.7929 61.2805 73.7311 61.5774Z" fill="#808285"/>
<path fill-rule="evenodd" clip-rule="evenodd" d="M80.5827 61.1324C80.6726 60.6219 80.8494 60.1643 81.1131 59.7599C81.3761 59.3569 81.701 59.0136 82.0878 58.7329C82.4754 58.4507 82.913 58.2363 83.4014 58.0882C83.8891 57.9401 84.4078 57.8657 84.9589 57.8657C85.5085 57.8657 86.0043 57.9401 86.4456 58.0882C86.8869 58.2363 87.2509 58.4507 87.539 58.7329C87.8263 59.0136 88.0281 59.3569 88.1438 59.7599C88.2602 60.1643 88.272 60.6219 88.1821 61.1324L87.3629 65.779H85.5881L86.3285 61.5774C86.4515 60.8826 86.3734 60.3537 86.0949 59.9904C85.8157 59.6272 85.3442 59.4453 84.6804 59.4453C84.0048 59.4453 83.467 59.6272 83.0662 59.9904C82.6647 60.3537 82.4024 60.8826 82.2801 61.5774L81.539 65.779H79.7634L80.5827 61.1324Z" fill="#808285"/>
<path fill-rule="evenodd" clip-rule="evenodd" d="M90.1509 58.8926C90.201 58.6068 90.3211 58.399 90.5097 58.2716C90.6976 58.1441 90.9422 58.0808 91.2435 58.0808C91.4306 58.0808 91.5979 58.1029 91.7452 58.1493C91.8933 58.1949 91.9913 58.2281 92.0392 58.2487L90.7116 65.7789H88.9368L90.1509 58.8926ZM91.7902 54.6292C92.0915 54.6292 92.3272 54.7316 92.4989 54.9364C92.6706 55.1412 92.7302 55.3909 92.6772 55.6878C92.6249 55.9847 92.4775 56.2345 92.2337 56.4386C91.9898 56.6441 91.7179 56.7458 91.4166 56.7458C91.116 56.7458 90.8795 56.6441 90.7086 56.4386C90.5355 56.2345 90.4766 55.9847 90.5289 55.6878C90.5819 55.3909 90.7285 55.1412 90.9731 54.9364C91.217 54.7316 91.4888 54.6292 91.7902 54.6292Z" fill="#808285"/>
<path fill-rule="evenodd" clip-rule="evenodd" d="M99.3615 65.2117C99.2687 65.2633 99.1265 65.3347 98.9342 65.4276C98.7412 65.5182 98.5054 65.6051 98.2262 65.6877C97.947 65.7694 97.6287 65.8402 97.2699 65.9028C96.9111 65.9632 96.5243 65.9949 96.1088 65.9949C95.5275 65.9949 95 65.9072 94.527 65.7341C94.0548 65.5595 93.6584 65.3016 93.3401 64.959C93.0211 64.6164 92.7972 64.1973 92.666 63.7014C92.5364 63.2056 92.5275 62.6353 92.641 61.9914C92.7493 61.3777 92.9541 60.8178 93.2561 60.3124C93.5582 59.8055 93.9303 59.3716 94.3738 59.0084C94.8166 58.6459 95.3131 58.3637 95.8613 58.1656C96.4109 57.9652 96.9914 57.8657 97.6044 57.8657C98.1437 57.8657 98.6093 57.935 99.0005 58.0727C99.391 58.2113 99.7085 58.3954 99.9546 58.6245C100.199 58.8551 100.367 59.1233 100.459 59.4305C100.55 59.737 100.565 60.0642 100.503 60.4112C100.441 60.7692 100.316 61.0941 100.129 61.3851C99.9428 61.6761 99.6606 61.9281 99.2805 62.1373C98.901 62.3465 98.4096 62.5101 97.8084 62.628C97.2058 62.7459 96.458 62.8048 95.5651 62.8048C95.3581 62.8048 95.1636 62.8019 94.9831 62.7967C94.8018 62.7915 94.6088 62.7834 94.4025 62.7739C94.3937 63.2947 94.5764 63.7169 94.9507 64.0381C95.3242 64.3608 95.9113 64.5214 96.7107 64.5214C96.9811 64.5214 97.2338 64.5015 97.4696 64.461C97.7046 64.4197 97.919 64.3689 98.1112 64.307C98.3035 64.2458 98.47 64.1847 98.6115 64.1228C98.7515 64.0617 98.8561 64.016 98.9231 63.985L99.3615 65.2117ZM94.5366 61.5774C94.7731 61.5877 95.0007 61.5921 95.2181 61.5921H95.8723C96.4433 61.5921 96.9118 61.5567 97.278 61.4853C97.6427 61.4138 97.9352 61.3217 98.1518 61.209C98.3684 61.097 98.5209 60.9696 98.6085 60.8259C98.6962 60.6823 98.753 60.5349 98.7802 60.3809C98.8487 59.9927 98.7419 59.7009 98.4597 59.5071C98.1768 59.3126 97.8026 59.2162 97.3347 59.2162C96.9509 59.2162 96.6017 59.2817 96.2871 59.4151C95.974 59.5477 95.6992 59.7238 95.4627 59.944C95.2262 60.1643 95.0287 60.4171 94.8689 60.7029C94.7097 60.9895 94.5985 61.2805 94.5366 61.5774Z" fill="#808285"/>
<path fill-rule="evenodd" clip-rule="evenodd" d="M101.29 64.4295C101.42 64.1642 101.569 63.9653 101.738 63.8319C101.906 63.6986 102.126 63.6331 102.396 63.6331C102.551 63.6331 102.688 63.6529 102.805 63.6934C102.922 63.7347 103.024 63.7804 103.108 63.8319C103.192 63.8828 103.262 63.9344 103.314 63.9852C103.368 64.0368 103.402 64.0773 103.418 64.1082L100.902 68.2185L99.6963 67.7278L101.29 64.4295Z" fill="#808285"/>
<path fill-rule="evenodd" clip-rule="evenodd" d="M115.57 65.7488C115.463 65.7694 115.295 65.7923 115.068 65.8181C114.84 65.8431 114.574 65.8689 114.268 65.8947C113.962 65.9197 113.621 65.9425 113.243 65.9632C112.867 65.9838 112.475 65.9949 112.07 65.9949C111.26 65.9949 110.611 65.9256 110.121 65.7871C109.631 65.6494 109.259 65.4652 109.003 65.2353C108.748 65.0047 108.593 64.7395 108.537 64.4374C108.481 64.1361 108.482 63.8266 108.537 63.5091C108.611 63.0899 108.741 62.7223 108.926 62.4055C109.112 62.0887 109.371 61.8227 109.706 61.6084C110.039 61.3932 110.454 61.2319 110.95 61.1251C111.448 61.0175 112.038 60.9637 112.724 60.9637C113.118 60.9637 113.489 60.9762 113.838 61.0027C114.186 61.0271 114.447 61.0506 114.62 61.0713C114.683 60.7132 114.675 60.417 114.598 60.1813C114.52 59.9463 114.389 59.7621 114.204 59.6295C114.02 59.4961 113.787 59.4048 113.505 59.3539C113.224 59.3031 112.907 59.2766 112.553 59.2766C111.962 59.2766 111.475 59.3436 111.093 59.4762C110.712 59.6096 110.456 59.7215 110.326 59.8136C110.272 59.7621 110.204 59.6655 110.12 59.5226C110.036 59.379 110.012 59.2051 110.049 59.001C110.074 58.8581 110.137 58.7174 110.24 58.5789C110.342 58.4411 110.501 58.3181 110.717 58.2112C110.933 58.1029 111.213 58.0189 111.556 57.9585C111.899 57.8966 112.325 57.8657 112.834 57.8657C113.446 57.8657 113.993 57.9247 114.477 58.0425C114.96 58.1597 115.36 58.3468 115.678 58.6017C115.996 58.8581 116.22 59.1948 116.349 59.614C116.477 60.0332 116.489 60.5394 116.384 61.1324L115.57 65.7488ZM114.411 62.3443C114.311 62.3237 114.121 62.2928 113.843 62.2515C113.565 62.2117 113.14 62.1911 112.57 62.1911C111.863 62.1911 111.331 62.2957 110.972 62.5042C110.614 62.7149 110.394 63.0443 110.315 63.4944C110.283 63.6786 110.286 63.8473 110.327 63.9998C110.367 64.1545 110.461 64.2842 110.608 64.3917C110.755 64.4985 110.967 64.5811 111.243 64.6371C111.518 64.693 111.868 64.7218 112.294 64.7218C112.772 64.7218 113.154 64.7034 113.44 64.668C113.727 64.6319 113.919 64.6039 114.017 64.5833L114.411 62.3443Z" fill="#808285"/>
<path fill-rule="evenodd" clip-rule="evenodd" d="M122.318 56.7157C122.369 56.4291 122.488 56.2221 122.676 56.0946C122.866 55.9672 123.105 55.9031 123.395 55.9031C123.582 55.9031 123.752 55.9259 123.905 55.9716C124.058 56.0173 124.159 56.0512 124.206 56.0718L123.852 58.0809H126.111C126.453 58.0809 126.682 58.1501 126.798 58.2879C126.914 58.4264 126.949 58.6275 126.902 58.8935C126.871 59.0674 126.817 59.228 126.739 59.376C126.661 59.5256 126.601 59.6295 126.559 59.6914H123.568L122.966 63.1113C122.919 63.3765 122.917 63.5938 122.96 63.7626C123.002 63.9313 123.08 64.0676 123.191 64.1692C123.303 64.2716 123.441 64.3431 123.605 64.3836C123.77 64.4249 123.945 64.4455 124.132 64.4455C124.433 64.4455 124.721 64.3991 124.997 64.307C125.272 64.2149 125.475 64.128 125.603 64.0462L126.115 65.2117C126.021 65.2729 125.891 65.3502 125.724 65.4423C125.557 65.5337 125.357 65.6206 125.124 65.7024C124.892 65.7849 124.637 65.8542 124.357 65.9094C124.076 65.9661 123.775 65.9949 123.454 65.9949C122.54 65.9949 121.891 65.7613 121.506 65.2965C121.12 64.8308 120.995 64.2201 121.128 63.4634L122.318 56.7157Z" fill="#808285"/>
<path fill-rule="evenodd" clip-rule="evenodd" d="M133.667 65.7488C133.56 65.7694 133.392 65.7923 133.165 65.8181C132.936 65.8431 132.67 65.8689 132.365 65.8947C132.059 65.9197 131.718 65.9425 131.34 65.9632C130.963 65.9838 130.572 65.9949 130.167 65.9949C129.357 65.9949 128.708 65.9256 128.218 65.7871C127.728 65.6494 127.356 65.4652 127.1 65.2353C126.845 65.0047 126.69 64.7395 126.634 64.4374C126.578 64.1361 126.578 63.8266 126.634 63.5091C126.708 63.0899 126.838 62.7223 127.023 62.4055C127.209 62.0887 127.468 61.8227 127.803 61.6084C128.136 61.3932 128.551 61.2319 129.048 61.1251C129.545 61.0175 130.135 60.9637 130.821 60.9637C131.215 60.9637 131.586 60.9762 131.934 61.0027C132.283 61.0271 132.544 61.0506 132.717 61.0713C132.78 60.7132 132.772 60.417 132.695 60.1813C132.617 59.9463 132.486 59.7621 132.301 59.6295C132.117 59.4961 131.884 59.4048 131.602 59.3539C131.321 59.3031 131.004 59.2766 130.65 59.2766C130.059 59.2766 129.572 59.3436 129.19 59.4762C128.809 59.6096 128.553 59.7215 128.422 59.8136C128.369 59.7621 128.301 59.6655 128.217 59.5226C128.133 59.379 128.109 59.2051 128.145 59.001C128.171 58.8581 128.234 58.7174 128.337 58.5789C128.439 58.4411 128.597 58.3181 128.814 58.2112C129.03 58.1029 129.31 58.0189 129.653 57.9585C129.996 57.8966 130.422 57.8657 130.931 57.8657C131.543 57.8657 132.091 57.9247 132.574 58.0425C133.057 58.1597 133.457 58.3468 133.775 58.6017C134.093 58.8581 134.317 59.1948 134.446 59.614C134.574 60.0332 134.586 60.5394 134.481 61.1324L133.667 65.7488ZM132.508 62.3443C132.407 62.3237 132.218 62.2928 131.94 62.2515C131.662 62.2117 131.237 62.1911 130.667 62.1911C129.96 62.1911 129.428 62.2957 129.069 62.5042C128.711 62.7149 128.491 63.0443 128.412 63.4944C128.38 63.6786 128.383 63.8473 128.424 63.9998C128.464 64.1545 128.558 64.2842 128.705 64.3917C128.852 64.4985 129.063 64.5811 129.34 64.6371C129.615 64.693 129.965 64.7218 130.392 64.7218C130.869 64.7218 131.251 64.7034 131.537 64.668C131.824 64.6319 132.016 64.6039 132.114 64.5833L132.508 62.3443Z" fill="#808285"/>
<path fill-rule="evenodd" clip-rule="evenodd" d="M135.601 62.2832C135.727 61.5678 135.943 60.9357 136.247 60.389C136.55 59.8417 136.923 59.3819 137.362 59.0084C137.802 58.6356 138.304 58.352 138.867 58.1575C139.431 57.9637 140.035 57.8665 140.678 57.8665C141.27 57.8665 141.797 57.9681 142.259 58.1729C142.722 58.3778 143.105 58.6584 143.411 59.0158C143.717 59.3746 143.929 59.8041 144.048 60.3043C144.167 60.8053 144.176 61.3476 144.073 61.9311C143.969 62.5234 143.771 63.0686 143.482 63.5637C143.192 64.0595 142.836 64.486 142.415 64.8441C141.993 65.2029 141.524 65.4799 141.005 65.6803C140.488 65.8792 139.944 65.9787 139.373 65.9787C138.781 65.9787 138.276 65.8667 137.859 65.642C137.442 65.4165 137.132 65.1402 136.93 64.8139L136.219 68.8468H134.444L135.601 62.2832ZM139.396 64.4293C139.749 64.4293 140.085 64.366 140.403 64.2392C140.722 64.1111 141.008 63.9342 141.26 63.7095C141.512 63.4848 141.722 63.2189 141.891 62.9116C142.059 62.6052 142.175 62.2729 142.238 61.9156C142.299 61.5678 142.299 61.2429 142.239 60.9409C142.178 60.6396 142.06 60.3787 141.886 60.1592C141.712 59.9396 141.488 59.7658 141.215 59.6376C140.941 59.5101 140.628 59.4453 140.275 59.4453C139.922 59.4453 139.587 59.5072 139.27 59.6302C138.952 59.7518 138.668 59.9219 138.416 60.1363C138.167 60.3507 137.955 60.6093 137.782 60.9107C137.61 61.212 137.49 61.5465 137.426 61.9156C137.363 62.2729 137.364 62.6052 137.429 62.9116C137.494 63.2189 137.611 63.4848 137.779 63.7095C137.947 63.9342 138.168 64.1111 138.442 64.2392C138.715 64.366 139.033 64.4293 139.396 64.4293Z" fill="#808285"/>
<path fill-rule="evenodd" clip-rule="evenodd" d="M155.235 65.7488C155.127 65.7694 154.96 65.7923 154.733 65.8181C154.504 65.8431 154.238 65.8689 153.932 65.8947C153.627 65.9197 153.286 65.9425 152.908 65.9632C152.531 65.9838 152.14 65.9949 151.735 65.9949C150.925 65.9949 150.275 65.9256 149.786 65.7871C149.296 65.6494 148.924 65.4652 148.668 65.2353C148.413 65.0047 148.257 64.7395 148.201 64.4374C148.145 64.1361 148.146 63.8266 148.202 63.5091C148.276 63.0899 148.405 62.7223 148.591 62.4055C148.777 62.0887 149.036 61.8227 149.371 61.6084C149.704 61.3932 150.119 61.2319 150.616 61.1251C151.112 61.0175 151.703 60.9637 152.388 60.9637C152.782 60.9637 153.154 60.9762 153.502 61.0027C153.851 61.0271 154.112 61.0506 154.285 61.0713C154.348 60.7132 154.34 60.417 154.263 60.1813C154.184 59.9463 154.053 59.7621 153.869 59.6295C153.685 59.4961 153.452 59.4048 153.17 59.3539C152.889 59.3031 152.572 59.2766 152.218 59.2766C151.626 59.2766 151.14 59.3436 150.759 59.4762C150.376 59.6096 150.121 59.7215 149.99 59.8136C149.936 59.7621 149.869 59.6655 149.785 59.5226C149.701 59.379 149.677 59.2051 149.713 59.001C149.739 58.8581 149.802 58.7174 149.905 58.5789C150.006 58.4411 150.166 58.3181 150.381 58.2112C150.598 58.1029 150.878 58.0189 151.221 57.9585C151.564 57.8966 151.99 57.8657 152.499 57.8657C153.11 57.8657 153.658 57.9247 154.142 58.0425C154.624 58.1597 155.025 58.3468 155.343 58.6017C155.661 58.8581 155.885 59.1948 156.014 59.614C156.142 60.0332 156.154 60.5394 156.049 61.1324L155.235 65.7488ZM154.076 62.3443C153.975 62.3237 153.786 62.2928 153.508 62.2515C153.23 62.2117 152.805 62.1911 152.234 62.1911C151.528 62.1911 150.996 62.2957 150.637 62.5042C150.278 62.7149 150.059 63.0443 149.98 63.4944C149.947 63.6786 149.951 63.8473 149.992 63.9998C150.031 64.1545 150.126 64.2842 150.273 64.3917C150.42 64.4985 150.631 64.5811 150.907 64.6371C151.183 64.693 151.534 64.7218 151.96 64.7218C152.437 64.7218 152.819 64.7034 153.106 64.668C153.392 64.6319 153.584 64.6039 153.681 64.5833L154.076 62.3443Z" fill="#808285"/>
<path fill-rule="evenodd" clip-rule="evenodd" d="M158.531 65.779C158.23 64.6039 157.987 63.6071 157.805 62.7886C157.622 61.9715 157.481 61.2937 157.384 60.7567C157.287 60.2196 157.225 59.8055 157.198 59.5145C157.172 59.2235 157.17 59.0157 157.192 58.8927C157.229 58.6783 157.335 58.489 157.509 58.3254C157.683 58.1626 157.92 58.0808 158.222 58.0808C158.45 58.0808 158.626 58.1007 158.748 58.1412C158.871 58.1825 158.951 58.2134 158.989 58.2341C159.035 58.6842 159.091 59.1616 159.157 59.667C159.224 60.1739 159.295 60.6778 159.373 61.178C159.451 61.679 159.53 62.1572 159.611 62.6125C159.692 63.0678 159.763 63.4737 159.824 63.831C159.994 63.515 160.181 63.1518 160.382 62.7429C160.584 62.334 160.794 61.9118 161.01 61.4772C161.227 61.0425 161.442 60.6034 161.656 60.1584C161.869 59.7134 162.068 59.292 162.252 58.8927C162.382 58.6275 162.535 58.4256 162.709 58.2878C162.884 58.1493 163.137 58.0808 163.47 58.0808C163.678 58.0808 163.86 58.1088 164.016 58.1648C164.172 58.2208 164.269 58.2598 164.307 58.2797C164.361 58.7402 164.421 59.2235 164.488 59.7289C164.554 60.235 164.622 60.7331 164.692 61.2245C164.76 61.7152 164.83 62.1859 164.902 62.6353C164.973 63.0855 165.04 63.484 165.104 63.831C165.498 63.126 165.912 62.3539 166.345 61.5155C166.778 60.6778 167.189 59.8387 167.575 59.001C167.724 58.6842 167.888 58.4507 168.064 58.3033C168.241 58.1552 168.485 58.0808 168.796 58.0808C169.077 58.0808 169.296 58.1265 169.458 58.2193C169.617 58.3099 169.707 58.3667 169.724 58.3873C169.581 58.7247 169.354 59.1896 169.041 59.7834C168.729 60.3757 168.383 61.0174 168.001 61.7077C167.619 62.3981 167.22 63.1039 166.802 63.8237C166.384 64.5449 165.994 65.1969 165.632 65.779H163.794C163.749 65.5638 163.693 65.2507 163.626 64.836C163.559 64.4226 163.486 63.9696 163.406 63.4789C163.327 62.9875 163.252 62.485 163.181 61.9686C163.111 61.4521 163.047 60.9784 162.988 60.5496C162.778 60.9784 162.546 61.4521 162.294 61.9686C162.042 62.485 161.793 62.9875 161.545 63.4789C161.298 63.9696 161.07 64.4226 160.862 64.836C160.654 65.2507 160.489 65.5638 160.369 65.779H158.531Z" fill="#808285"/>
<path fill-rule="evenodd" clip-rule="evenodd" d="M176.18 65.7488C176.073 65.7694 175.905 65.7923 175.678 65.8181C175.45 65.8431 175.184 65.8689 174.878 65.8947C174.572 65.9197 174.231 65.9425 173.853 65.9632C173.477 65.9838 173.085 65.9949 172.68 65.9949C171.871 65.9949 171.221 65.9256 170.732 65.7871C170.242 65.6494 169.87 65.4652 169.614 65.2353C169.358 65.0047 169.203 64.7395 169.147 64.4374C169.091 64.1361 169.092 63.8266 169.148 63.5091C169.221 63.0899 169.351 62.7223 169.537 62.4055C169.722 62.0887 169.982 61.8227 170.316 61.6084C170.649 61.3932 171.065 61.2319 171.56 61.1251C172.058 61.0175 172.649 60.9637 173.334 60.9637C173.728 60.9637 174.099 60.9762 174.448 61.0027C174.796 61.0271 175.057 61.0506 175.23 61.0713C175.293 60.7132 175.285 60.417 175.208 60.1813C175.13 59.9463 174.999 59.7621 174.815 59.6295C174.63 59.4961 174.398 59.4048 174.115 59.3539C173.834 59.3031 173.517 59.2766 173.164 59.2766C172.572 59.2766 172.085 59.3436 171.704 59.4762C171.322 59.6096 171.066 59.7215 170.936 59.8136C170.882 59.7621 170.814 59.6655 170.73 59.5226C170.646 59.379 170.623 59.2051 170.659 59.001C170.684 58.8581 170.747 58.7174 170.85 58.5789C170.952 58.4411 171.111 58.3181 171.327 58.2112C171.543 58.1029 171.823 58.0189 172.166 57.9585C172.509 57.8966 172.935 57.8657 173.444 57.8657C174.056 57.8657 174.604 57.9247 175.087 58.0425C175.57 58.1597 175.971 58.3468 176.288 58.6017C176.606 58.8581 176.83 59.1948 176.959 59.614C177.087 60.0332 177.099 60.5394 176.995 61.1324L176.18 65.7488ZM175.022 62.3443C174.921 62.3237 174.731 62.2928 174.454 62.2515C174.175 62.2117 173.751 62.1911 173.18 62.1911C172.473 62.1911 171.941 62.2957 171.583 62.5042C171.224 62.7149 171.004 63.0443 170.925 63.4944C170.893 63.6786 170.897 63.8473 170.937 63.9998C170.977 64.1545 171.071 64.2842 171.219 64.3917C171.365 64.4985 171.577 64.5811 171.853 64.6371C172.128 64.693 172.478 64.7218 172.905 64.7218C173.382 64.7218 173.764 64.7034 174.051 64.668C174.337 64.6319 174.529 64.6039 174.627 64.5833L175.022 62.3443Z" fill="#808285"/>
<path fill-rule="evenodd" clip-rule="evenodd" d="M178.9 58.8927C178.948 58.6164 179.067 58.4123 179.257 58.2797C179.447 58.1464 179.687 58.0808 179.978 58.0808C180.164 58.0808 180.334 58.1029 180.487 58.1493C180.64 58.195 180.74 58.2282 180.789 58.2488L180.067 62.3436C179.961 62.947 180.039 63.4273 180.303 63.7853C180.567 64.1434 181.042 64.3224 181.727 64.3224C182.36 64.3224 182.891 64.1405 183.318 63.7773C183.745 63.4155 184.021 62.8806 184.145 62.1756L184.724 58.8927C184.773 58.6164 184.892 58.4123 185.082 58.2797C185.271 58.1464 185.511 58.0808 185.802 58.0808C185.989 58.0808 186.158 58.1029 186.311 58.1493C186.464 58.195 186.565 58.2282 186.613 58.2488L185.428 64.9664C185.301 65.692 185.094 66.3079 184.807 66.8148C184.52 67.3202 184.166 67.7372 183.745 68.0643C183.325 68.3915 182.847 68.6287 182.312 68.7775C181.777 68.9256 181.198 69 180.574 69C180.149 69 179.764 68.9764 179.419 68.9307C179.074 68.8843 178.769 68.8313 178.505 68.7694C178.241 68.7082 178.026 68.6493 177.86 68.5933C177.692 68.5373 177.576 68.4931 177.508 68.4629C177.629 68.2478 177.745 68.0311 177.857 67.8109C177.969 67.5906 178.08 67.374 178.19 67.1596C178.257 67.1898 178.364 67.2303 178.511 67.2819C178.658 67.3335 178.836 67.3821 179.046 67.4278C179.255 67.4735 179.495 67.5118 179.765 67.5427C180.034 67.5737 180.325 67.5891 180.637 67.5891C181.042 67.5891 181.413 67.5449 181.75 67.458C182.087 67.3711 182.386 67.22 182.648 67.0056C182.908 66.7913 183.129 66.5076 183.311 66.1547C183.493 65.8025 183.63 65.3598 183.725 64.8279C183.464 65.124 183.099 65.362 182.626 65.5417C182.152 65.7208 181.652 65.8099 181.122 65.8099C180.624 65.8099 180.174 65.7407 179.773 65.6029C179.371 65.4644 179.043 65.2655 178.788 65.0047C178.532 64.7439 178.354 64.4197 178.252 64.0307C178.148 63.6417 178.141 63.1975 178.229 62.6965L178.9 58.8927Z" fill="#808285"/>
<path fill-rule="evenodd" clip-rule="evenodd" d="M188.123 63.7244C188.445 63.7244 188.703 63.8371 188.897 64.0618C189.091 64.2872 189.159 64.5576 189.103 64.8744C189.05 65.1816 188.886 65.4498 188.611 65.6804C188.338 65.9095 188.039 66.0252 187.718 66.0252C187.396 66.0252 187.135 65.9095 186.937 65.6804C186.739 65.4498 186.668 65.1816 186.721 64.8744C186.777 64.5576 186.945 64.2872 187.222 64.0618C187.501 63.8371 187.801 63.7244 188.123 63.7244ZM188.57 56.0712C188.619 55.7949 188.74 55.5908 188.935 55.4582C189.129 55.3256 189.366 55.2585 189.647 55.2585C189.834 55.2585 190.003 55.2843 190.155 55.3352C190.307 55.386 190.407 55.4221 190.455 55.4427L189.228 62.4056H187.453L188.57 56.0712Z" fill="#808285"/>
<path d="M49.99 0.265137L41.4479 49.138H53.4678L62.0099 0.265137H49.99ZM46.3901 6.42763L47.4884 0.265137H9.96427L8.0118 11.5529H28.3907L1.54423 43.1585L0.567993 49.138H39.0073L40.8988 37.8502H19.6656L46.3901 6.42763ZM105.941 0.265137L84.5854 24.8541L71.9553 0.265137H65.9758L57.4338 49.138H69.3927L72.9925 28.637L81.2295 44.6839L95.0189 28.8201L91.419 49.199H103.439L111.981 0.326152H105.941V0.265137ZM217.842 0.265137L205.578 18.2645L199.781 0.265137H142.732L124.184 19.2407L127.54 0.265137H115.886L107.344 49.138H118.998L120.889 38.2773L124.489 34.6775L133.702 49.138H179.829L181.721 37.8502H158.169L159.45 30.9556H177.999L179.829 19.9119H161.403L162.928 11.6139H185.138L186.846 2.03457L197.28 32.542L194.351 49.199H206.371L209.3 32.725L231.57 0.265137H217.842ZM156.095 16.5561L159.756 16.6171L159.206 19.4238L155.607 19.3628L156.095 16.5561ZM155.79 35.4707L150.115 35.4097L150.603 32.603H152.8L156.278 32.664L155.79 35.4707ZM161.647 21.9864L161.22 24.549L148.956 24.427L148.407 27.1727L155.179 27.2337L154.752 29.7963L147.98 29.7353L144.197 29.6743L143.709 32.4809H143.892L147.492 32.542L145.6 43.2806L133.885 24.6711L152.373 5.51241L150.359 16.5561L153.776 16.6171L153.288 19.4238L148.651 19.3628L148.224 21.8644L161.647 21.9864Z" fill="#FF6C37"/>
<path d="M142.366 27.1116H145.905L146.393 24.366H142.854L142.366 27.1116Z" fill="#FF6C37"/>
</svg>
